<svg xmlns="http://www.w3.org/2000/svg" viewBox="0 0 200 200">
  <rect width="200" height="200" fill="#1E1E1E" rx="20" ry="20" />
  
  <!-- Sun -->
  <circle cx="60" cy="70" r="25" fill="#FFD700" />
  <path d="M60,35 L60,25 M85,70 L95,70 M60,105 L60,115 M35,70 L25,70 M78,52 L85,45 M78,88 L85,95 M42,88 L35,95 M42,52 L35,45" stroke="#FFD700" stroke-width="3" />
  
  <!-- Cloud -->
  <circle cx="120" cy="70" r="20" fill="#FFFFFF" opacity="0.9" />
  <circle cx="140" cy="80" r="20" fill="#FFFFFF" opacity="0.9" />
  <circle cx="110" cy="85" r="15" fill="#FFFFFF" opacity="0.9" />
  <rect x="110" y="70" width="40" height="25" fill="#FFFFFF" />
  
  <!-- Rain drops -->
  <path d="M110,110 L105,125 M120,110 L115,125 M130,110 L125,125 M140,110 L135,125" stroke="#4CC9F0" stroke-width="3" stroke-linecap="round" />
  
  <!-- Map outline -->
  <rect x="40" y="130" width="120" height="40" rx="5" ry="5" fill="none" stroke="#FFFFFF" stroke-width="2" />
  <path d="M40,150 L160,150 M100,130 L100,170 M60,140 C70,145 75,155 70,160 M130,140 C120,145 125,155 140,160" stroke="#FFFFFF" stroke-width="1" />
</svg> 