<svg xmlns="http://www.w3.org/2000/svg" viewBox="0 0 24 24" width="48" height="48">
  <path fill="#D0D0D0" d="M15.852 8.981h-4.588V0h4.588c2.476 0 4.49 2.014 4.49 4.49s-2.014 4.491-4.49 4.491zM12.735 7.51h3.117c1.665 0 3.019-1.355 3.019-3.019s-1.355-3.019-3.019-3.019h-3.117V7.51zm0 1.471H8.148c-2.476 0-4.49-2.014-4.49-4.49S5.672 0 8.148 0h4.588v8.981zm-4.587-7.51c-1.665 0-3.019 1.355-3.019 3.019s1.354 3.02 3.019 3.02h3.117V1.471H8.148zm4.587 15.019H8.148c-2.476 0-4.49-2.014-4.49-4.49s2.014-4.49 4.49-4.49h4.588v8.98zM8.148 10.981c-1.665 0-3.019 1.355-3.019 3.019s1.355 3.019 3.019 3.019h3.117v-6.038H8.148zm4.587 7.51h-4.587c-2.476 0-4.49-2.014-4.49-4.49s2.014-4.49 4.49-4.49h4.587v8.98zM8.148 12.452c-1.665 0-3.019 1.355-3.019 3.019s1.355 3.019 3.019 3.019h3.117v-6.038H8.148zm4.587 7.51h-4.587c-2.476 0-4.49-2.014-4.49-4.49s2.014-4.49 4.49-4.49h4.587v8.98zM8.148 13.924c-1.665 0-3.019 1.355-3.019 3.019s1.355 3.019 3.019 3.019h3.117v-6.038H8.148z"/>
</svg> 