<svg xmlns="http://www.w3.org/2000/svg" viewBox="0 0 24 24" width="48" height="48">
  <path fill="#38BDF8" d="M12 9.861a2.139 2.139 0 100 4.278 2.139 2.139 0 100-4.278zm-5.992 6.394c-.36.66-.281 1.94.24 3.221.502 1.241 1.38 2.241 2.4 2.94.857.601 1.857.901 2.879.901.84 0 1.681-.24 2.4-.72h.12c.9 0 1.68.12 2.399.36.72.24 1.32.6 1.86 1.2.12.12.24.24.36.36.12.12.24.24.36.36.9.72 1.86 1.08 2.94 1.08.24 0 .48-.12.72-.12 1.2-.24 2.4-.96 3.36-1.92 1.14-1.141 1.8-2.64 1.8-4.38 0-1.8-.66-3.42-1.92-4.741-1.08-1.14-2.64-1.92-4.44-2.28.36-1.68.12-3.36-.66-4.741-.84-1.44-2.16-2.52-3.78-3.12-1.44-.6-3-.6-4.44 0-1.44.6-2.76 1.68-3.6 3.12-.9 1.44-1.14 3.061-.78 4.741-1.86.36-3.42 1.14-4.56 2.28-1.26 1.32-1.92 2.94-1.92 4.741 0 1.68.66 3.18 1.8 4.38.96.96 2.16 1.68 3.36 1.92.24 0 .48.12.72.12 1.08 0 2.04-.36 2.94-1.08.12-.12.24-.24.36-.36.12-.12.24-.24.36-.36.54-.66 1.2-1.08 1.86-1.2.72-.24 1.56-.36 2.4-.36h.12c.72.48 1.56.72 2.4.72 1.08 0 2.04-.36 2.88-.9 1.02-.72 1.8-1.8 2.4-2.94.54-1.32.6-2.58.24-3.18v-.24zM12 16.8c-2.64 0-4.8-2.16-4.8-4.8 0-2.64 2.16-4.8 4.8-4.8 2.64 0 4.8 2.16 4.8 4.8 0 2.64-2.16 4.8-4.8 4.8z"/>
</svg>